<svg width="71" height="71" viewBox="0 0 71 71" fill="none" xmlns="http://www.w3.org/2000/svg">
<rect x="4" y="52" width="34" height="5.96491" rx="2" transform="rotate(-90 4 52)" fill="#982ED9"/>
<path d="M15.448 47V21.8H24.772C26.788 21.8 28.456 22.136 29.776 22.808C31.096 23.48 32.08 24.404 32.728 25.58C33.376 26.756 33.7 28.076 33.7 29.54C33.7 30.932 33.388 32.216 32.764 33.392C32.14 34.544 31.168 35.48 29.848 36.2C28.528 36.896 26.836 37.244 24.772 37.244H20.056V47H15.448ZM20.056 33.5H24.484C26.092 33.5 27.244 33.152 27.94 32.456C28.66 31.736 29.02 30.764 29.02 29.54C29.02 28.292 28.66 27.32 27.94 26.624C27.244 25.904 26.092 25.544 24.484 25.544H20.056V33.5Z" fill="black"/>
<path d="M37.3152 47V21.8H42.7872L50.8152 37.784L58.7352 21.8H64.2072V47H59.5992V29.612L52.5792 43.4H48.9432L41.9232 29.612V47H37.3152Z" fill="black"/>
</svg>
