<svg width="225" height="27" viewBox="0 0 225 27" fill="none" xmlns="http://www.w3.org/2000/svg">
<path d="M0.447998 26V0.799986H9.772C11.788 0.799986 13.456 1.13599 14.776 1.80799C16.096 2.47999 17.08 3.40399 17.728 4.57999C18.376 5.75599 18.7 7.07599 18.7 8.53999C18.7 9.93199 18.388 11.216 17.764 12.392C17.14 13.544 16.168 14.48 14.848 15.2C13.528 15.896 11.836 16.244 9.772 16.244H5.056V26H0.447998ZM5.056 12.5H9.484C11.092 12.5 12.244 12.152 12.94 11.456C13.66 10.736 14.02 9.76399 14.02 8.53999C14.02 7.29199 13.66 6.31999 12.94 5.62399C12.244 4.90399 11.092 4.54399 9.484 4.54399H5.056V12.5Z" fill="#2A2A2A"/>
<path d="M22.2072 26V8.14399H26.3112L26.7432 11.492C27.3912 10.34 28.2672 9.42799 29.3712 8.75599C30.4992 8.05999 31.8192 7.71199 33.3312 7.71199V12.572H32.0352C31.0272 12.572 30.1272 12.728 29.3352 13.04C28.5432 13.352 27.9192 13.892 27.4632 14.66C27.0312 15.428 26.8152 16.496 26.8152 17.864V26H22.2072Z" fill="#2A2A2A"/>
<path d="M38.9646 5.37199C38.1246 5.37199 37.4286 5.11999 36.8766 4.61599C36.3486 4.11199 36.0846 3.47599 36.0846 2.70799C36.0846 1.93999 36.3486 1.31599 36.8766 0.835985C37.4286 0.331986 38.1246 0.0799866 38.9646 0.0799866C39.8046 0.0799866 40.4886 0.331986 41.0166 0.835985C41.5686 1.31599 41.8446 1.93999 41.8446 2.70799C41.8446 3.47599 41.5686 4.11199 41.0166 4.61599C40.4886 5.11999 39.8046 5.37199 38.9646 5.37199ZM36.6606 26V8.14399H41.2686V26H36.6606Z" fill="#2A2A2A"/>
<path d="M53.4583 26.432C51.8743 26.432 50.4823 26.18 49.2823 25.676C48.0823 25.148 47.1223 24.428 46.4023 23.516C45.6823 22.604 45.2503 21.548 45.1063 20.348H49.7503C49.8943 21.044 50.2783 21.644 50.9023 22.148C51.5503 22.628 52.3783 22.868 53.3863 22.868C54.3943 22.868 55.1263 22.664 55.5823 22.256C56.0623 21.848 56.3023 21.38 56.3023 20.852C56.3023 20.084 55.9663 19.568 55.2943 19.304C54.6223 19.016 53.6863 18.74 52.4863 18.476C51.7183 18.308 50.9383 18.104 50.1463 17.864C49.3543 17.624 48.6223 17.324 47.9503 16.964C47.3023 16.58 46.7743 16.1 46.3663 15.524C45.9583 14.924 45.7543 14.192 45.7543 13.328C45.7543 11.744 46.3783 10.412 47.6263 9.33199C48.8983 8.25199 50.6743 7.71199 52.9543 7.71199C55.0663 7.71199 56.7463 8.20399 57.9943 9.18799C59.2663 10.172 60.0223 11.528 60.2623 13.256H55.9063C55.6423 11.936 54.6463 11.276 52.9183 11.276C52.0543 11.276 51.3823 11.444 50.9023 11.78C50.4463 12.116 50.2183 12.536 50.2183 13.04C50.2183 13.568 50.5663 13.988 51.2623 14.3C51.9583 14.612 52.8823 14.9 54.0343 15.164C55.2823 15.452 56.4223 15.776 57.4543 16.136C58.5103 16.472 59.3503 16.988 59.9743 17.684C60.5983 18.356 60.9103 19.328 60.9103 20.6C60.9343 21.704 60.6463 22.7 60.0463 23.588C59.4463 24.476 58.5823 25.172 57.4543 25.676C56.3263 26.18 54.9943 26.432 53.4583 26.432Z" fill="#2A2A2A"/>
<path d="M73.7403 26.432C71.9163 26.432 70.3083 26.036 68.9163 25.244C67.5243 24.452 66.4203 23.348 65.6043 21.932C64.8123 20.516 64.4163 18.896 64.4163 17.072C64.4163 15.248 64.8123 13.628 65.6043 12.212C66.4203 10.796 67.5243 9.69199 68.9163 8.89999C70.3083 8.10799 71.9163 7.71199 73.7403 7.71199C76.0203 7.71199 77.9403 8.31199 79.5003 9.51199C81.0603 10.688 82.0563 12.32 82.4883 14.408H77.6283C77.3883 13.544 76.9083 12.872 76.1883 12.392C75.4923 11.888 74.6643 11.636 73.7043 11.636C72.4323 11.636 71.3523 12.116 70.4643 13.076C69.5763 14.036 69.1323 15.368 69.1323 17.072C69.1323 18.776 69.5763 20.108 70.4643 21.068C71.3523 22.028 72.4323 22.508 73.7043 22.508C74.6643 22.508 75.4923 22.268 76.1883 21.788C76.9083 21.308 77.3883 20.624 77.6283 19.736H82.4883C82.0563 21.752 81.0603 23.372 79.5003 24.596C77.9403 25.82 76.0203 26.432 73.7403 26.432Z" fill="#2A2A2A"/>
<path d="M89.0623 5.37199C88.2223 5.37199 87.5263 5.11999 86.9743 4.61599C86.4463 4.11199 86.1823 3.47599 86.1823 2.70799C86.1823 1.93999 86.4463 1.31599 86.9743 0.835985C87.5263 0.331986 88.2223 0.0799866 89.0623 0.0799866C89.9023 0.0799866 90.5863 0.331986 91.1143 0.835985C91.6663 1.31599 91.9423 1.93999 91.9423 2.70799C91.9423 3.47599 91.6663 4.11199 91.1143 4.61599C90.5863 5.11999 89.9023 5.37199 89.0623 5.37199ZM86.7583 26V8.14399H91.3663V26H86.7583Z" fill="#2A2A2A"/>
<path d="M96.1759 26V0.0799866H100.784V26H96.1759Z" fill="#2A2A2A"/>
<path d="M105.492 26V0.0799866H110.1V26H105.492Z" fill="#2A2A2A"/>
<path d="M120.965 26.432C119.429 26.432 118.169 26.192 117.185 25.712C116.201 25.208 115.469 24.548 114.989 23.732C114.509 22.916 114.269 22.016 114.269 21.032C114.269 19.376 114.917 18.032 116.213 17C117.509 15.968 119.453 15.452 122.045 15.452H126.581V15.02C126.581 13.796 126.233 12.896 125.537 12.32C124.841 11.744 123.977 11.456 122.945 11.456C122.009 11.456 121.193 11.684 120.497 12.14C119.801 12.572 119.369 13.22 119.201 14.084H114.701C114.821 12.788 115.253 11.66 115.997 10.7C116.765 9.73999 117.749 9.00799 118.949 8.50399C120.149 7.97599 121.493 7.71199 122.981 7.71199C125.525 7.71199 127.529 8.34799 128.993 9.61999C130.457 10.892 131.189 12.692 131.189 15.02V26H127.265L126.833 23.12C126.305 24.08 125.561 24.872 124.601 25.496C123.665 26.12 122.453 26.432 120.965 26.432ZM122.009 22.832C123.329 22.832 124.349 22.4 125.069 21.536C125.813 20.672 126.281 19.604 126.473 18.332H122.549C121.325 18.332 120.449 18.56 119.921 19.016C119.393 19.448 119.129 19.988 119.129 20.636C119.129 21.332 119.393 21.872 119.921 22.256C120.449 22.64 121.145 22.832 122.009 22.832Z" fill="#2A2A2A"/>
<path d="M144.272 26V0.799986H149.744L157.772 16.784L165.692 0.799986H171.164V26H166.556V8.61199L159.536 22.4H155.9L148.88 8.61199V26H144.272Z" fill="#2A2A2A"/>
<path d="M184.621 26.432C182.821 26.432 181.225 26.048 179.833 25.28C178.441 24.512 177.349 23.432 176.557 22.04C175.765 20.648 175.369 19.04 175.369 17.216C175.369 15.368 175.753 13.724 176.521 12.284C177.313 10.844 178.393 9.72799 179.761 8.93599C181.153 8.11999 182.785 7.71199 184.657 7.71199C186.409 7.71199 187.957 8.09599 189.301 8.86399C190.645 9.63199 191.689 10.688 192.433 12.032C193.201 13.352 193.585 14.828 193.585 16.46C193.585 16.724 193.573 17 193.549 17.288C193.549 17.576 193.537 17.876 193.513 18.188H179.941C180.037 19.58 180.517 20.672 181.381 21.464C182.269 22.256 183.337 22.652 184.585 22.652C185.521 22.652 186.301 22.448 186.925 22.04C187.573 21.608 188.053 21.056 188.365 20.384H193.045C192.709 21.512 192.145 22.544 191.353 23.48C190.585 24.392 189.625 25.112 188.473 25.64C187.345 26.168 186.061 26.432 184.621 26.432ZM184.657 11.456C183.529 11.456 182.533 11.78 181.669 12.428C180.805 13.052 180.253 14.012 180.013 15.308H188.905C188.833 14.132 188.401 13.196 187.609 12.5C186.817 11.804 185.833 11.456 184.657 11.456Z" fill="#2A2A2A"/>
<path d="M197.461 26V0.0799866H202.069V26H197.461Z" fill="#2A2A2A"/>
<path d="M215.346 26.432C213.618 26.432 212.057 26.036 210.665 25.244C209.297 24.452 208.205 23.36 207.389 21.968C206.597 20.552 206.201 18.92 206.201 17.072C206.201 15.224 206.609 13.604 207.425 12.212C208.241 10.796 209.333 9.69199 210.701 8.89999C212.093 8.10799 213.653 7.71199 215.382 7.71199C217.086 7.71199 218.622 8.10799 219.99 8.89999C221.382 9.69199 222.474 10.796 223.266 12.212C224.082 13.604 224.49 15.224 224.49 17.072C224.49 18.92 224.082 20.552 223.266 21.968C222.474 23.36 221.382 24.452 219.99 25.244C218.598 26.036 217.05 26.432 215.346 26.432ZM215.346 22.436C216.546 22.436 217.589 21.992 218.477 21.104C219.365 20.192 219.809 18.848 219.809 17.072C219.809 15.296 219.365 13.964 218.477 13.076C217.589 12.164 216.558 11.708 215.382 11.708C214.158 11.708 213.102 12.164 212.214 13.076C211.35 13.964 210.917 15.296 210.917 17.072C210.917 18.848 211.35 20.192 212.214 21.104C213.102 21.992 214.146 22.436 215.346 22.436Z" fill="#2A2A2A"/>
</svg>
